<?xml version="1.0" encoding="UTF-8" standalone="no"?>
<!DOCTYPE svg PUBLIC "-//W3C//DTD SVG 1.1//EN" "http://www.w3.org/Graphics/SVG/1.1/DTD/svg11.dtd">
<svg width="100%" height="100%" viewBox="0 0 2000 2000" version="1.1" xmlns="http://www.w3.org/2000/svg" xmlns:xlink="http://www.w3.org/1999/xlink" xml:space="preserve" xmlns:serif="http://www.serif.com/" style="fill-rule:evenodd;clip-rule:evenodd;stroke-linejoin:round;stroke-miterlimit:2;">
    <path d="M850.2,759.1L847,761.7C818.2,763.2 791.7,781.4 779.7,807.6C760.9,848.7 784,899.7 827.3,912.6C833.6,914.5 850.7,915.2 851.9,918.7C852.7,953.2 851.8,987.7 852.3,1022.2C855.1,1214.2 1134.6,1219.5 1152.8,1033.3L1153.5,915.6C1195.1,918 1231,880.3 1231.5,839.5C1231.9,799.6 1195.8,761 1155.5,762.1L1155.5,715.1L1269.7,712.2L1274.2,715.4C1274.2,779.9 1275.3,844.5 1274.6,909C1273.5,1018 1284.7,1109.8 1208.3,1197.8C1085.8,1338.9 853.3,1315.3 763.6,1151.1C719.5,1070.3 730.9,996.5 731.4,909C731.8,843.4 730.9,777.8 731.4,712.2L850.4,715.1L850.4,759.2L850.2,759.1Z" style="fill-rule:nonzero;"/>
    <path d="M420.3,882.9L354.9,1029.6C351.7,1031.6 348.1,1032.2 344.5,1032.6C311.3,1036 274.1,1034.8 241.1,1038.6C231.2,1039.7 222.9,1045.8 213.1,1046L361.8,708.2L473.2,708.2L480,711L613.2,1021.1C604.5,1017.9 595.7,1015.9 586.4,1015.3C570.4,1014.3 547.3,1016.3 530.7,1017.3C513.9,1018.3 496.8,1024 479.8,1020.2L420.3,883L420.3,882.9ZM399.9,774.1C376.5,797.4 409.9,838 437.7,814.8C467,790.4 427.1,747 399.9,774.1Z" style="fill-rule:nonzero;"/>
    <path d="M852.2,712.1C851.6,637 905.9,577.2 978,562.5L977.6,505.2C911,475.7 931.4,375.8 1006.8,380C1066.3,383.3 1088.4,459.7 1042.3,496.3C1038.5,499.3 1028.5,502.1 1027.2,506.1L1027,564.2C1099.9,575.1 1152.2,639 1153.6,712.1L852.2,712.1Z" style="fill:rgb(220,20,60);fill-rule:nonzero;"/>
    <path d="M1502.8,810C1499.4,788.8 1505.9,751 1496,733.3C1490.4,723.3 1479.5,720.3 1476,710.1C1499.9,707.8 1524,707.8 1548.1,708.1C1653.3,709.3 1757.6,705.5 1789.4,829.5C1808,901.8 1795.2,982.9 1735.1,1031.6C1732.8,1033.5 1722.7,1042.1 1720.6,1038.4C1719.5,1010.3 1714.2,982.6 1692.8,962.5C1683.7,954 1671.5,949.4 1662.3,941.1C1661,936.9 1670.6,912.6 1671.5,904.8C1684.3,789.5 1579.2,816.4 1502.8,810Z" style="fill-rule:nonzero;"/>
    <path d="M225.2,1127.9C202,1103.4 214.9,1055.7 248.5,1051.7C356.4,1038.9 466.8,1040.1 574.8,1026.8C676.8,1024.7 673.3,1172.5 571,1165C469.7,1153.5 367.1,1152.6 265.8,1142C250.6,1140.4 236.4,1139.7 225.2,1127.9ZM569.5,1058C537.3,1063.4 528.9,1113.7 559.4,1130.5C623.9,1166.3 648.5,1044.6 569.5,1058ZM254.7,1080.9C237,1084.7 240.9,1115.8 263.4,1110.8C281.1,1107 277.2,1075.9 254.7,1080.9Z" style="fill:rgb(220,20,60);fill-rule:nonzero;"/>
    <path d="M1408.3,708.7C1445.8,702.9 1478.5,726 1485.7,762.9L1467.9,1006.2C1463.3,1022.9 1453,1036.6 1435.8,1041.3C1397.7,1051.8 1378.7,1028.6 1374.3,993.2C1365.2,919.7 1368.3,840.7 1358.8,766.8C1358.2,742.5 1384.3,712.4 1408.3,708.7ZM1415.9,739.4C1375.3,747.1 1385.6,813 1430.4,803.7C1470,795.5 1458.3,731.4 1415.9,739.4ZM1433.2,1016.7C1447,1005.1 1428.5,979.3 1411.6,994.2C1397.6,1006.6 1417.7,1029.7 1433.2,1016.7Z" style="fill:rgb(220,20,60);fill-rule:nonzero;"/>
    <path d="M1831,1241.8L1680.3,1241.8L1581.5,1094C1607.4,1096.2 1632.8,1098.5 1658.7,1095.4C1677.8,1090.9 1694.1,1079.2 1709.1,1067L1831,1241.7L1831,1241.8Z" style="fill-rule:nonzero;"/>
    <path d="M1483.7,969.3C1508,963.9 1533,966.6 1557.6,965.5C1575.4,964.7 1595.4,961.9 1613.1,961.5C1645.3,960.8 1672,956.6 1687.4,991C1698.1,1014.8 1696.5,1038.4 1679.4,1058.6C1658.6,1083.2 1642.8,1077.5 1613.2,1074.9C1567.4,1070.8 1521.8,1062.1 1475.9,1058.7L1470.3,1054.8C1489.8,1029.6 1490.6,999.5 1483.7,969.5L1483.7,969.3ZM1614.8,1039.6C1641.3,1067.9 1687.3,1031.8 1664.9,998.2C1639.6,960.3 1582.7,1005.3 1614.8,1039.6Z" style="fill:rgb(220,20,60);fill-rule:nonzero;"/>
    <path d="M729.3,1291.7L598.8,1291.7L548.9,1178.5L590.2,1178.5C591.3,1178.5 601.4,1175.5 603.7,1174.8C630.7,1166.4 645.4,1148.3 659.3,1124.8L729.3,1291.7Z" style="fill-rule:nonzero;"/>
    <path d="M1464.4,1134.3C1491.1,1130.9 1506.2,1163.1 1476.4,1168.4C1442.7,1174.4 1394.9,1164.8 1359.7,1168.9C1333.5,1158 1349.8,1139.5 1370.4,1134.9L1369.3,1036.3C1373,1030.5 1381.3,1043.5 1384.7,1046C1391.1,1050.6 1405.9,1055.6 1413.5,1055.6L1461.5,1055.6L1464.4,1058.5L1464.4,1134.3Z" style="fill-rule:nonzero;"/>
    <path d="M850.2,763.9C927.5,759.7 956,867.7 888.6,905C882.8,908.2 852.9,921.2 850.3,912.4L850.1,763.9L850.2,763.9Z" style="fill:rgb(220,20,60);fill-rule:nonzero;"/>
    <path d="M1682.7,1251.8L1847.3,1251.4C1862.7,1254.3 1862.5,1287.9 1845.5,1289.8L1680.4,1289.6C1666.4,1287 1665.9,1252.1 1682.7,1251.7L1682.7,1251.8Z" style="fill-rule:nonzero;"/>
    <path d="M208.6,1125.3C211.4,1127.9 213.6,1133.7 217.1,1136.9C223.1,1142.5 237.2,1151.7 245.2,1153C253.2,1154.3 261.2,1151.6 267.9,1155.2C273.1,1162.4 252.6,1183 257.6,1191.4C258.7,1193.3 267.5,1195.3 268.7,1202.4C270.9,1215 259.4,1220.7 248.1,1217.1C237.2,1213.7 179,1185.1 169.5,1178.7C149.4,1165.1 166.9,1142.4 188,1155.3L202.5,1124.6C203.9,1121.7 207.1,1123.8 208.6,1125.2L208.6,1125.3Z" style="fill-rule:nonzero;"/>
    <path d="M1408.8,1180.4L1408.8,1289.8C1405.8,1290.3 1404.4,1289.5 1402,1288C1391.1,1280.9 1379.6,1264.2 1367.4,1257.4C1364.5,1255.1 1364.9,1252 1364.6,1248.7C1363.8,1240.4 1364.1,1184.1 1367,1180.8C1380.5,1176.6 1395.1,1178.5 1408.9,1180.4L1408.8,1180.4Z" style="fill-rule:nonzero;"/>
    <path d="M1428,1183.2C1430.5,1175 1461.5,1179.1 1468.8,1180.3C1472.3,1181.6 1472,1189.5 1472.2,1192.7C1472.9,1204.2 1473.8,1245.5 1469.8,1253.8C1464.1,1265.6 1441.3,1279 1432.8,1289.7L1428,1286.8L1428,1183.2Z" style="fill-rule:nonzero;"/>
    <path d="M233.9,1226.7C235.1,1228.6 233.9,1232 233.2,1234.2C232.3,1237.4 214,1274.1 212.4,1275.8C209.5,1279 176.8,1293.9 174.6,1291.7L175.5,1284C185,1274.8 202.3,1222.1 209.1,1217.8C214.2,1214.5 227.5,1226 233.8,1226.8L233.9,1226.7Z" style="fill-rule:nonzero;"/>
    <path d="M159,1279.8C157.1,1280.9 153.9,1279.8 151.7,1280.1L144.1,1244.7C144.3,1241.8 162.6,1204.9 165.5,1200.8C166.9,1198.8 168.4,1195.5 171.5,1196C176.1,1200.3 191.9,1203.4 192,1210L159.1,1279.8L159,1279.8Z" style="fill-rule:nonzero;"/>
    <rect x="957.7" y="1046" width="88.3" height="13.4" style="fill:rgb(220,20,60);"/>
    <rect x="957.7" y="1065.2" width="88.3" height="13.4"/>
    <path d="M1136.2,1065.2L1132.4,1078.7L1053.7,1078.7L1053.7,1065.2L1136.2,1065.2Z" style="fill-rule:nonzero;"/>
    <path d="M950.1,1046L950.1,1059.4L867.6,1059.4C866.1,1056.1 872.3,1046 874.3,1046L950.1,1046Z" style="fill:rgb(220,20,60);fill-rule:nonzero;"/>
    <path d="M1136.2,1059.5L1053.7,1059.5L1053.7,1046.1L1129.5,1046.1C1131.6,1046.1 1137.7,1056.3 1136.2,1059.5Z" style="fill:rgb(220,20,60);fill-rule:nonzero;"/>
    <path d="M950.1,1065.2L950.1,1078.6L874.3,1078.6C872.2,1078.6 866.1,1068.4 867.6,1065.2L950.1,1065.2Z" style="fill-rule:nonzero;"/>
    <path d="M1153.5,762.2L1153.3,910.7C1150.7,919.5 1120.8,906.5 1115,903.3C1047.6,866 1076.1,758 1153.4,762.2L1153.5,762.2Z" style="fill:rgb(220,20,60);fill-rule:nonzero;"/>
</svg>
